<svg width="1200" height="360" viewBox="0 0 1200 360" xmlns="http://www.w3.org/2000/svg" role="img" aria-labelledby="title desc">
  <title id="title">Rayyan Ahmed - Founding AI Engineer</title>
  <desc id="desc">Modern portfolio banner for a founding AI engineer building production AI systems from scratch.</desc>
  <defs>
    <linearGradient id="panel" x1="0" x2="1" y1="0" y2="1">
      <stop offset="0%" stop-color="#0B0F12"/>
      <stop offset="48%" stop-color="#111827"/>
      <stop offset="100%" stop-color="#161B22"/>
    </linearGradient>
    <linearGradient id="accent" x1="0" x2="1" y1="0" y2="0">
      <stop offset="0%" stop-color="#7CF6D2"/>
      <stop offset="50%" stop-color="#FFD166"/>
      <stop offset="100%" stop-color="#FF6B6B"/>
    </linearGradient>
    <linearGradient id="cool" x1="0" x2="1" y1="0" y2="1">
      <stop offset="0%" stop-color="#7CF6D2" stop-opacity="0.24"/>
      <stop offset="100%" stop-color="#7C8CFF" stop-opacity="0.16"/>
    </linearGradient>
    <pattern id="grid" width="42" height="42" patternUnits="userSpaceOnUse">
      <path d="M 42 0 L 0 0 0 42" fill="none" stroke="#FFFFFF" stroke-width="1" opacity="0.06"/>
    </pattern>
    <filter id="softShadow" x="-20%" y="-20%" width="140%" height="140%">
      <feDropShadow dx="0" dy="18" stdDeviation="18" flood-color="#000000" flood-opacity="0.34"/>
    </filter>
  </defs>

  <rect width="1200" height="360" rx="8" fill="url(#panel)"/>
  <rect width="1200" height="360" rx="8" fill="url(#grid)"/>
  <path d="M0 310 C165 280 270 330 430 300 C590 270 708 205 862 224 C1015 244 1088 312 1200 270 L1200 360 L0 360 Z" fill="url(#cool)"/>
  <path d="M42 58 H1158" stroke="url(#accent)" stroke-width="3" stroke-linecap="round" opacity="0.95"/>

  <g transform="translate(72 96)">
    <text x="0" y="0" font-family="Inter, Segoe UI, Arial, sans-serif" font-size="18" font-weight="700" letter-spacing="4" fill="#7CF6D2">FOUNDING AI ENGINEER</text>
    <text x="0" y="70" font-family="Inter, Segoe UI, Arial, sans-serif" font-size="68" font-weight="800" fill="#F8FAFC">Rayyan Ahmed</text>
    <text x="0" y="112" font-family="Inter, Segoe UI, Arial, sans-serif" font-size="24" fill="#CBD5E1">Building AI functions from zero to production.</text>
    <text x="0" y="148" font-family="Inter, Segoe UI, Arial, sans-serif" font-size="24" fill="#94A3B8">Agents, RAG, healthcare automation, and applied MLOps.</text>
    <g transform="translate(0 188)">
      <rect x="0" y="0" width="154" height="42" rx="8" fill="#7CF6D2" opacity="0.14" stroke="#7CF6D2" stroke-opacity="0.55"/>
      <text x="77" y="27" text-anchor="middle" font-family="Inter, Segoe UI, Arial, sans-serif" font-size="15" font-weight="700" fill="#E6FFFA">AI Platform</text>
      <rect x="172" y="0" width="112" height="42" rx="8" fill="#FFD166" opacity="0.14" stroke="#FFD166" stroke-opacity="0.55"/>
      <text x="228" y="27" text-anchor="middle" font-family="Inter, Segoe UI, Arial, sans-serif" font-size="15" font-weight="700" fill="#FFF7DB">Agents</text>
      <rect x="302" y="0" width="104" height="42" rx="8" fill="#7C8CFF" opacity="0.14" stroke="#7C8CFF" stroke-opacity="0.55"/>
      <text x="354" y="27" text-anchor="middle" font-family="Inter, Segoe UI, Arial, sans-serif" font-size="15" font-weight="700" fill="#EEF2FF">RAG</text>
      <rect x="424" y="0" width="178" height="42" rx="8" fill="#FF6B6B" opacity="0.14" stroke="#FF6B6B" stroke-opacity="0.55"/>
      <text x="513" y="27" text-anchor="middle" font-family="Inter, Segoe UI, Arial, sans-serif" font-size="15" font-weight="700" fill="#FFECEC">Medical AI</text>
    </g>
  </g>

  <g transform="translate(830 92)" filter="url(#softShadow)">
    <rect x="0" y="0" width="286" height="194" rx="8" fill="#0F172A" stroke="#263241"/>
    <rect x="24" y="26" width="238" height="18" rx="4" fill="#1F2937"/>
    <rect x="24" y="64" width="188" height="16" rx="4" fill="#7CF6D2" opacity="0.72"/>
    <rect x="24" y="96" width="214" height="16" rx="4" fill="#FFD166" opacity="0.70"/>
    <rect x="24" y="128" width="162" height="16" rx="4" fill="#7C8CFF" opacity="0.72"/>
    <rect x="24" y="160" width="92" height="10" rx="4" fill="#FF6B6B" opacity="0.78"/>
    <rect x="230" y="146" width="28" height="28" rx="6" fill="#7CF6D2" opacity="0.92">
      <animate attributeName="opacity" values="0.48;0.95;0.48" dur="2.8s" repeatCount="indefinite"/>
    </rect>
  </g>

  <path d="M840 307 H1116" stroke="url(#accent)" stroke-width="2" stroke-linecap="round" stroke-dasharray="10 14">
    <animate attributeName="stroke-dashoffset" values="0;-48" dur="5s" repeatCount="indefinite"/>
  </path>
</svg>
