<svg width="100" height="100" viewBox="0 0 100 100" xmlns="http://www.w3.org/2000/svg">
  <defs>
    <linearGradient id="aiGrad" x1="0%" y1="0%" x2="100%" y2="100%">
      <stop offset="0%" style="stop-color:#667eea;stop-opacity:1" />
      <stop offset="100%" style="stop-color:#764ba2;stop-opacity:1" />
    </linearGradient>
  </defs>
  
  <!-- AI Brain Icon -->
  <circle cx="50" cy="50" r="40" fill="url(#aiGrad)" stroke="#ffffff" stroke-width="2"/>
  
  <!-- Neural network lines -->
  <g stroke="#ffffff" stroke-width="1.5" fill="none">
    <line x1="30" y1="35" x2="45" y2="45"/>
    <line x1="30" y1="65" x2="45" y2="55"/>
    <line x1="45" y1="45" x2="55" y2="45"/>
    <line x1="45" y1="55" x2="55" y2="55"/>
    <line x1="55" y1="45" x2="70" y2="35"/>
    <line x1="55" y1="55" x2="70" y2="65"/>
  </g>
  
  <!-- Nodes -->
  <g fill="#ffffff">
    <circle cx="30" cy="35" r="3"/>
    <circle cx="30" cy="65" r="3"/>
    <circle cx="45" cy="45" r="3"/>
    <circle cx="45" cy="55" r="3"/>
    <circle cx="55" cy="45" r="3"/>
    <circle cx="55" cy="55" r="3"/>
    <circle cx="70" cy="35" r="3"/>
    <circle cx="70" cy="65" r="3"/>
  </g>
  
  <!-- Pulsing animation -->
  <circle cx="50" cy="50" r="35" fill="none" stroke="#ffffff" stroke-width="1" opacity="0.5">
    <animate attributeName="r" values="35;45;35" dur="2s" repeatCount="indefinite"/>
    <animate attributeName="opacity" values="0.5;0;0.5" dur="2s" repeatCount="indefinite"/>
  </circle>
</svg>
