<svg width="100" height="100" viewBox="0 0 100 100" xmlns="http://www.w3.org/2000/svg">
  <defs>
    <linearGradient id="mlGrad" x1="0%" y1="0%" x2="100%" y2="100%">
      <stop offset="0%" style="stop-color:#f093fb;stop-opacity:1" />
      <stop offset="100%" style="stop-color:#f5576c;stop-opacity:1" />
    </linearGradient>
  </defs>
  
  <!-- Machine Learning Gear Icon -->
  <circle cx="50" cy="50" r="35" fill="url(#mlGrad)" stroke="#ffffff" stroke-width="2"/>
  
  <!-- Gear teeth -->
  <g fill="url(#mlGrad)">
    <rect x="47" y="10" width="6" height="10" rx="2"/>
    <rect x="47" y="80" width="6" height="10" rx="2"/>
    <rect x="10" y="47" width="10" height="6" rx="2"/>
    <rect x="80" y="47" width="10" height="6" rx="2"/>
    
    <!-- Diagonal teeth -->
    <rect x="25" y="20" width="8" height="4" rx="2" transform="rotate(45 29 22)"/>
    <rect x="67" y="20" width="8" height="4" rx="2" transform="rotate(-45 71 22)"/>
    <rect x="25" y="76" width="8" height="4" rx="2" transform="rotate(-45 29 78)"/>
    <rect x="67" y="76" width="8" height="4" rx="2" transform="rotate(45 71 78)"/>
  </g>
  
  <!-- Inner circle -->
  <circle cx="50" cy="50" r="15" fill="#ffffff"/>
  
  <!-- Data flow arrows -->
  <g fill="#667eea">
    <polygon points="45,45 55,50 45,55" />
    <text x="50" y="53" font-family="Arial" font-size="8" text-anchor="middle" fill="#667eea">ML</text>
  </g>
  
  <!-- Rotation animation -->
  <animateTransform attributeName="transform" type="rotate" values="0 50 50;360 50 50" dur="8s" repeatCount="indefinite"/>
</svg>
