<svg width="100" height="100" viewBox="0 0 100 100" xmlns="http://www.w3.org/2000/svg">
  <defs>
    <linearGradient id="nlpGrad" x1="0%" y1="0%" x2="100%" y2="100%">
      <stop offset="0%" style="stop-color:#4facfe;stop-opacity:1" />
      <stop offset="100%" style="stop-color:#00f2fe;stop-opacity:1" />
    </linearGradient>
  </defs>
  
  <!-- NLP Background -->
  <circle cx="50" cy="50" r="40" fill="url(#nlpGrad)" stroke="#ffffff" stroke-width="2"/>
  
  <!-- Text Elements -->
  <g fill="#ffffff" opacity="0.9">
    <!-- Text Lines -->
    <rect x="25" y="30" width="35" height="2" rx="1"/>
    <rect x="25" y="38" width="50" height="2" rx="1"/>
    <rect x="25" y="46" width="40" height="2" rx="1"/>
    <rect x="25" y="54" width="45" height="2" rx="1"/>
    <rect x="25" y="62" width="30" height="2" rx="1"/>
    <rect x="25" y="70" width="35" height="2" rx="1"/>
    
    <!-- Highlight Word/Entity -->
    <rect x="40" y="36" width="16" height="6" rx="3" fill="#ffffff" opacity="0.3"/>
    <rect x="50" y="52" width="12" height="6" rx="3" fill="#ffffff" opacity="0.3"/>
  </g>
  
  <!-- Connection to Brain -->
  <g stroke="#ffffff" stroke-width="1.5" fill="none">
    <path d="M65,40 C75,40 80,50 75,60"/>
    <polygon points="75,60 72,55 78,55" fill="#ffffff"/>
  </g>
  
  <!-- Animation -->
  <circle cx="50" cy="50" r="38" fill="none" stroke="#ffffff" stroke-width="1" opacity="0.5">
    <animate attributeName="r" values="38;42;38" dur="4s" repeatCount="indefinite"/>
    <animate attributeName="opacity" values="0.5;0.2;0.5" dur="4s" repeatCount="indefinite"/>
  </circle>
</svg>
